<svg xmlns="http://www.w3.org/2000/svg" viewBox="0 0 600 600" role="img" aria-label="Mapa do Brasil — Unidades da Federação" class="brazil-uf-map">
  <path id="uf-11" data-sigla="RO" data-name="Rondônia" d="M113.7,236.8 L108.9,235.9 L113.1,233.3 L114.7,231.3 L114.4,230.0 L120.6,230.1 L123.1,232.6 L125.8,230.1 L128.1,230.9 L127.9,228.7 L130.8,227.8 L131.6,230.3 L132.8,230.4 L136.5,224.0 L146.2,223.4 L146.2,220.4 L149.3,217.9 L149.0,214.4 L151.4,214.3 L153.6,209.2 L164.2,209.3 L166.6,211.0 L168.9,215.2 L171.2,215.3 L171.5,218.3 L173.7,218.2 L174.6,221.2 L177.7,222.3 L178.6,220.2 L180.4,219.6 L183.8,222.9 L182.6,225.4 L183.0,227.6 L181.5,228.0 L183.7,233.2 L182.3,234.5 L183.2,236.6 L181.9,240.8 L183.9,244.7 L182.6,252.9 L198.0,252.9 L199.5,254.6 L200.2,253.9 L204.6,254.7 L205.5,258.8 L202.8,261.6 L202.9,265.2 L204.6,266.3 L205.9,271.1 L207.6,272.5 L203.4,276.5 L203.3,280.3 L200.4,283.2 L199.0,288.6 L195.5,290.3 L194.5,292.1 L190.2,289.1 L178.6,290.0 L173.9,283.7 L170.8,284.0 L167.2,281.5 L165.4,282.2 L160.1,276.4 L158.1,277.4 L151.3,273.7 L148.9,275.2 L145.0,274.1 L144.2,274.8 L141.2,272.8 L141.1,270.8 L138.3,270.1 L138.3,268.8 L137.6,269.8 L136.5,267.7 L133.8,267.5 L133.0,263.4 L130.6,263.3 L131.2,260.7 L129.9,260.3 L130.1,257.8 L129.1,256.7 L130.7,252.9 L128.2,245.5 L130.2,241.8 L130.2,236.3 L129.0,234.2 L128.0,233.8 L126.4,236.3 L123.3,234.7 L123.1,235.6 L121.3,235.0 L113.7,236.8 Z M113.7,236.8 L113.8,236.8 L113.8,236.8 L113.7,236.8 Z">
    <title>Rondônia</title>
  </path>
  <path id="uf-12" data-sigla="AC" data-name="Acre" d="M13.4,198.1 L26.7,204.2 L58.8,211.7 L81.9,224.1 L111.4,237.6 L105.5,242.6 L100.4,244.0 L96.2,248.8 L91.3,248.3 L88.8,252.4 L84.5,254.6 L82.0,255.1 L81.5,253.1 L72.1,252.0 L67.7,252.7 L64.9,251.9 L59.6,254.1 L56.6,252.1 L55.3,253.1 L55.3,236.0 L56.5,235.2 L55.6,232.2 L57.1,230.3 L47.0,238.1 L33.4,238.6 L33.8,235.7 L32.1,235.0 L32.4,233.0 L30.9,231.3 L18.9,230.1 L21.8,227.2 L22.8,223.9 L20.1,219.9 L17.8,218.5 L18.0,216.5 L14.4,214.6 L13.1,209.9 L11.1,208.3 L12.3,206.4 L8.0,203.2 L9.0,201.9 L8.4,200.1 L12.1,199.6 L10.6,196.7 L13.4,198.1 Z">
    <title>Acre</title>
  </path>
  <path id="uf-13" data-sigla="AM" data-name="Amazonas" d="M101.6,64.3 L102.2,66.6 L103.9,67.0 L104.8,68.6 L104.9,76.8 L108.2,75.9 L115.7,82.8 L118.9,82.7 L121.9,80.2 L126.0,79.1 L127.3,81.0 L125.9,83.3 L126.6,84.3 L128.3,83.5 L129.6,80.3 L131.7,80.4 L132.8,77.0 L133.9,77.6 L136.9,74.7 L137.8,76.0 L142.7,71.6 L143.5,74.0 L146.9,70.3 L148.3,65.1 L152.9,64.5 L157.1,61.7 L160.3,62.3 L162.0,64.6 L166.4,65.7 L165.0,70.7 L167.4,73.0 L170.1,79.6 L168.9,86.4 L170.1,88.3 L170.4,92.4 L173.7,98.5 L172.0,101.2 L172.3,103.1 L170.6,104.3 L169.5,103.6 L169.2,104.7 L175.8,109.9 L177.8,114.0 L181.5,114.5 L183.7,116.6 L181.7,113.9 L182.7,109.1 L182.2,107.3 L183.8,103.4 L187.3,101.0 L191.5,101.8 L195.0,106.7 L200.1,104.2 L198.8,101.1 L203.9,89.9 L219.9,89.9 L220.2,98.7 L222.2,100.0 L222.6,103.6 L226.4,106.5 L226.5,108.6 L228.0,110.3 L230.2,111.6 L232.2,109.8 L233.0,114.0 L241.0,118.7 L244.2,118.7 L246.0,121.4 L250.3,123.0 L249.8,125.1 L251.0,125.8 L259.2,123.1 L254.0,128.8 L254.9,129.3 L228.8,187.4 L225.8,190.8 L226.4,193.8 L229.5,197.1 L230.6,200.3 L229.7,204.1 L227.1,207.3 L228.5,211.5 L226.6,216.7 L226.3,219.8 L227.9,220.0 L226.9,220.9 L182.2,221.2 L180.4,219.6 L178.6,220.2 L178.3,222.0 L176.5,222.3 L174.6,221.2 L173.7,218.2 L171.6,218.4 L171.2,215.3 L168.9,215.2 L166.6,211.0 L164.5,209.4 L153.6,209.2 L151.4,214.3 L149.0,214.4 L149.3,217.9 L147.9,220.0 L146.4,220.1 L146.2,223.5 L136.5,224.0 L132.8,230.4 L131.6,230.3 L130.8,227.8 L127.9,228.7 L128.1,230.9 L125.8,230.1 L123.1,232.6 L120.6,230.1 L114.4,230.0 L114.7,231.3 L113.1,233.3 L108.9,235.9 L81.9,224.1 L58.8,211.7 L26.7,204.2 L10.6,196.7 L12.8,191.7 L20.0,187.9 L18.6,181.1 L22.4,175.6 L23.5,168.6 L24.5,167.8 L27.1,166.9 L37.6,159.2 L41.3,158.5 L41.5,159.4 L46.2,157.3 L50.8,157.3 L52.7,154.3 L54.5,154.6 L54.9,153.5 L55.3,154.5 L59.4,153.8 L61.2,157.0 L62.5,155.5 L63.4,156.8 L64.5,156.0 L72.5,110.1 L69.3,104.6 L70.1,103.0 L69.4,101.1 L63.2,96.4 L63.4,85.6 L66.7,85.5 L68.5,84.0 L69.5,84.6 L71.3,83.1 L73.0,84.9 L76.5,84.3 L75.5,83.1 L76.2,81.0 L74.3,78.3 L66.2,78.0 L66.2,68.8 L70.3,67.8 L72.5,68.8 L89.9,68.7 L88.4,67.3 L89.2,65.3 L90.1,65.0 L92.9,67.2 L95.3,64.2 L97.4,64.4 L100.4,61.2 L101.6,64.3 Z">
    <title>Amazonas</title>
  </path>
  <path id="uf-14" data-sigla="RR" data-name="Roraima" d="M205.6,48.2 L204.6,54.8 L205.9,59.5 L208.3,60.8 L207.9,66.8 L209.1,66.7 L208.8,68.3 L210.9,68.8 L214.9,73.6 L220.0,75.5 L219.9,89.9 L203.9,89.9 L198.8,101.1 L200.1,104.0 L197.7,104.9 L197.0,106.4 L193.8,106.2 L191.5,101.8 L189.1,101.0 L184.4,102.9 L182.8,104.7 L181.5,112.6 L183.6,116.6 L181.5,114.5 L177.8,114.0 L175.8,109.9 L169.2,104.7 L169.5,103.6 L170.6,104.3 L172.3,103.1 L172.0,101.2 L173.7,98.5 L170.4,92.4 L170.1,88.3 L168.9,86.4 L169.7,78.0 L168.9,78.0 L167.4,73.0 L165.0,70.7 L166.4,65.7 L162.0,64.6 L160.3,62.3 L157.2,61.9 L156.6,58.5 L152.3,59.3 L147.5,57.6 L148.3,53.6 L145.0,48.6 L144.7,44.3 L145.7,42.2 L141.4,38.8 L136.7,32.3 L138.4,32.2 L140.4,34.3 L146.0,34.0 L148.8,37.7 L150.2,36.6 L152.7,37.1 L152.7,35.6 L155.3,38.1 L156.3,36.1 L159.4,36.5 L159.1,38.2 L162.9,41.5 L164.6,39.6 L166.0,40.3 L165.8,35.3 L168.5,35.6 L170.2,33.2 L174.3,34.7 L176.6,33.2 L177.3,34.3 L179.5,32.2 L182.5,32.1 L183.2,29.9 L186.3,29.2 L185.9,28.1 L190.4,28.3 L191.8,25.4 L194.0,24.8 L196.1,22.4 L194.3,18.1 L198.3,18.7 L201.5,17.4 L204.5,20.1 L204.5,21.5 L204.0,25.7 L202.1,28.5 L207.3,29.1 L209.0,30.4 L208.3,33.2 L211.2,36.6 L209.1,40.1 L206.3,41.9 L207.1,45.2 L205.6,48.2 Z">
    <title>Roraima</title>
  </path>
  <path id="uf-15" data-sigla="PA" data-name="Pará" d="M387.6,104.4 L387.5,106.2 L389.1,104.4 L389.0,106.3 L389.9,106.8 L390.2,105.6 L390.5,107.1 L392.0,105.2 L391.5,107.9 L393.2,106.8 L393.4,107.9 L395.0,106.2 L393.9,107.8 L394.9,109.2 L395.5,108.0 L396.7,109.4 L397.2,107.0 L398.3,106.7 L397.1,110.7 L398.5,108.1 L398.5,110.5 L399.9,108.5 L398.7,112.3 L399.5,113.1 L398.5,115.1 L398.8,118.0 L396.4,119.3 L398.0,120.3 L397.0,124.9 L394.9,126.2 L395.1,130.4 L391.6,132.8 L392.9,134.9 L391.4,135.5 L391.4,138.5 L386.4,145.3 L385.7,149.6 L382.4,152.4 L378.8,159.2 L377.4,160.5 L375.8,160.2 L362.3,171.2 L364.6,172.3 L367.5,171.9 L370.9,174.9 L370.4,176.4 L368.7,177.1 L369.6,179.9 L368.2,180.7 L368.8,182.2 L366.8,183.2 L367.5,186.1 L365.9,185.7 L364.3,187.2 L363.5,190.2 L355.9,194.0 L356.2,198.5 L353.4,203.0 L356.7,206.7 L355.8,212.4 L350.5,221.8 L348.4,222.7 L344.3,228.3 L341.6,236.3 L250.0,230.0 L249.1,227.7 L245.7,226.8 L246.0,225.5 L243.8,223.1 L238.2,220.6 L236.9,215.6 L237.5,212.7 L234.9,209.2 L233.9,204.9 L230.1,199.7 L229.5,197.1 L226.4,193.8 L225.8,190.8 L228.8,187.4 L254.9,129.3 L254.0,128.8 L259.2,123.1 L251.0,125.8 L249.8,125.1 L250.3,123.0 L246.0,121.4 L244.2,118.7 L241.0,118.7 L233.0,114.0 L232.2,109.8 L230.2,111.6 L226.5,108.6 L226.4,106.5 L222.6,103.6 L222.3,100.1 L220.2,98.7 L219.9,76.0 L221.0,76.8 L222.6,75.0 L225.5,75.4 L225.3,72.6 L227.1,72.5 L228.0,70.6 L232.4,72.0 L232.6,69.7 L235.7,68.7 L239.0,69.1 L242.2,64.8 L243.3,65.7 L245.3,64.4 L246.3,66.0 L249.5,66.9 L254.2,65.4 L261.2,67.0 L261.9,64.2 L258.6,60.9 L259.3,59.4 L260.3,59.8 L260.9,57.1 L264.5,59.0 L269.2,58.7 L270.1,57.3 L275.2,56.3 L277.9,61.8 L277.2,63.9 L278.2,68.0 L284.3,68.5 L286.6,70.0 L287.4,72.2 L288.5,71.7 L290.7,73.6 L293.6,73.3 L293.5,74.4 L295.1,74.3 L295.2,76.2 L296.7,75.7 L296.9,80.3 L301.2,83.8 L300.2,88.2 L303.6,95.8 L307.0,98.1 L307.7,102.2 L309.4,102.3 L309.2,106.1 L311.1,106.4 L310.7,109.0 L315.0,110.3 L315.3,111.5 L316.9,110.0 L319.4,110.5 L320.9,109.2 L321.2,105.1 L327.7,95.5 L335.4,91.1 L338.7,85.1 L342.6,83.5 L344.2,85.4 L343.9,88.8 L349.3,88.4 L353.3,93.5 L359.8,97.0 L367.1,97.5 L366.2,101.0 L373.0,104.0 L374.3,101.8 L375.1,103.6 L375.5,101.9 L376.1,103.0 L377.0,101.5 L378.1,103.9 L379.3,102.5 L380.1,104.8 L380.7,102.3 L380.9,103.2 L382.4,102.4 L383.9,103.0 L383.5,104.0 L384.7,103.4 L384.5,105.0 L385.7,103.3 L386.1,105.4 L386.3,104.3 L387.6,104.4 Z M398.0,107.4 L398.1,107.3 L398.2,107.4 L398.0,107.4 Z M387.5,104.5 L387.6,104.4 L387.6,104.4 L387.5,104.5 Z M386.6,104.1 L386.7,104.1 L386.6,104.1 L386.6,104.1 Z M397.2,107.3 L397.2,107.3 L397.2,107.3 L397.2,107.3 Z">
    <title>Pará</title>
  </path>
  <path id="uf-16" data-sigla="AP" data-name="Amapá" d="M328.2,35.7 L329.7,37.4 L330.6,49.6 L334.9,62.8 L338.5,61.9 L341.5,67.6 L345.9,69.1 L346.3,76.5 L343.5,83.6 L339.0,84.7 L335.4,91.1 L327.7,95.5 L321.2,105.1 L320.9,109.2 L319.4,110.5 L316.9,110.0 L315.7,111.6 L315.0,110.3 L310.7,109.0 L311.1,106.4 L309.2,106.1 L309.4,102.3 L307.7,102.2 L307.0,98.1 L303.6,95.8 L300.2,88.2 L301.2,83.8 L296.9,80.3 L296.7,75.7 L295.2,76.2 L295.1,74.3 L293.5,74.4 L293.6,73.3 L290.7,73.6 L288.5,71.7 L287.4,72.2 L286.6,70.0 L284.3,68.5 L278.2,68.0 L277.2,63.9 L277.9,61.8 L276.3,58.6 L279.0,58.3 L279.3,60.0 L282.5,61.7 L289.0,61.4 L291.9,59.3 L295.1,61.1 L297.9,59.7 L299.4,60.9 L298.9,62.3 L303.5,62.3 L308.9,57.3 L312.0,47.8 L317.8,38.9 L321.7,35.2 L323.0,29.7 L327.2,33.0 L328.2,35.7 Z">
    <title>Amapá</title>
  </path>
  <path id="uf-17" data-sigla="TO" data-name="Tocantins" d="M386.4,223.8 L385.9,225.0 L388.0,225.1 L390.2,230.0 L393.1,231.1 L391.9,234.7 L394.0,236.1 L395.8,241.0 L403.8,242.5 L405.2,241.0 L403.4,244.9 L398.0,248.0 L397.0,251.7 L392.3,257.3 L394.2,260.5 L399.7,262.1 L396.5,262.2 L395.7,265.6 L398.5,266.1 L395.4,268.1 L396.0,272.4 L397.4,274.7 L398.8,274.5 L397.0,276.0 L396.7,281.3 L399.3,281.0 L395.8,281.9 L395.1,279.5 L394.6,281.6 L390.4,281.6 L380.9,286.2 L378.0,283.5 L377.4,288.8 L375.3,286.5 L372.0,285.4 L370.6,286.5 L370.4,284.2 L366.7,286.3 L365.7,283.9 L364.6,286.6 L364.4,282.9 L360.8,279.2 L359.2,281.4 L357.2,279.0 L355.5,280.4 L353.6,286.0 L340.7,279.7 L340.6,277.4 L342.8,273.3 L339.7,275.5 L337.6,280.0 L336.1,279.4 L334.9,276.4 L336.1,273.8 L335.2,270.5 L335.8,265.9 L334.7,263.8 L335.6,261.8 L334.4,259.7 L336.2,254.0 L336.3,248.2 L338.9,243.7 L339.3,240.5 L343.3,232.7 L344.3,228.3 L348.4,222.7 L350.5,221.8 L354.9,215.1 L356.7,206.7 L353.4,203.0 L356.2,198.5 L355.9,194.0 L363.5,190.2 L363.8,188.0 L365.7,185.8 L367.5,186.1 L366.8,183.2 L368.8,182.2 L368.2,180.7 L369.6,179.9 L368.7,177.1 L371.0,175.4 L367.5,171.9 L364.6,172.3 L362.3,171.2 L364.4,171.0 L365.3,169.1 L367.8,168.6 L370.4,169.9 L374.5,169.9 L375.1,171.6 L379.9,173.8 L381.6,184.6 L379.5,194.8 L376.4,198.0 L377.8,199.5 L379.9,199.4 L380.1,200.4 L378.6,201.5 L379.8,201.5 L386.3,210.4 L392.5,208.1 L394.4,210.6 L393.3,214.2 L389.6,215.4 L388.1,218.2 L388.1,221.9 L386.4,223.8 Z">
    <title>Tocantins</title>
  </path>
  <path id="uf-21" data-sigla="MA" data-name="Maranhão" d="M386.5,223.9 L388.1,221.9 L388.1,218.2 L389.6,215.4 L393.3,214.2 L394.4,210.6 L392.5,208.1 L386.3,210.4 L379.8,201.5 L378.6,201.5 L380.1,200.4 L379.9,199.4 L377.8,199.5 L376.4,198.0 L379.5,194.8 L381.6,184.6 L379.9,173.8 L375.1,171.6 L374.5,169.9 L370.4,169.9 L367.8,168.6 L365.3,169.1 L364.4,171.0 L362.3,171.2 L375.8,160.2 L378.3,159.7 L381.7,155.2 L382.4,152.4 L385.7,149.6 L386.4,145.3 L391.4,138.5 L391.4,135.5 L392.9,134.9 L391.6,132.8 L395.1,130.4 L394.9,126.2 L397.0,124.9 L398.0,120.3 L396.4,119.3 L398.8,118.0 L398.8,111.5 L401.4,108.9 L401.7,111.7 L403.1,108.9 L402.2,110.8 L402.9,110.4 L402.9,112.3 L403.6,110.6 L403.8,112.3 L405.4,110.2 L404.5,111.7 L405.5,113.2 L404.9,114.1 L406.8,112.0 L407.2,113.3 L408.0,112.5 L407.7,114.2 L409.2,112.4 L408.1,114.5 L408.8,116.1 L408.7,114.7 L409.3,115.3 L410.5,112.8 L410.9,114.3 L409.5,115.2 L409.7,116.2 L410.8,115.4 L410.0,118.9 L410.6,116.9 L411.5,117.2 L412.9,115.0 L413.2,115.9 L413.6,113.5 L413.9,115.7 L417.6,114.3 L416.4,117.1 L417.5,116.6 L417.8,117.8 L419.2,116.2 L418.9,117.1 L419.5,116.4 L420.0,117.3 L418.0,117.9 L418.0,119.1 L419.2,118.9 L417.6,120.0 L420.7,119.0 L420.1,120.7 L421.6,120.4 L420.6,121.2 L422.2,121.9 L422.0,124.8 L423.5,125.8 L424.0,127.6 L423.2,128.7 L424.5,130.0 L428.7,128.5 L427.6,129.4 L429.6,129.7 L429.3,131.0 L434.4,125.9 L436.2,128.1 L440.5,128.1 L450.4,133.0 L459.6,133.1 L459.0,135.4 L460.0,136.7 L458.0,139.9 L455.5,141.0 L454.2,143.5 L450.1,143.7 L447.6,147.0 L446.9,150.4 L443.2,155.1 L445.2,158.7 L443.8,163.1 L445.9,168.8 L445.5,171.2 L441.7,175.3 L442.0,181.4 L445.5,185.5 L444.2,190.4 L443.1,191.6 L437.2,192.9 L433.0,190.8 L428.6,191.7 L424.7,196.8 L421.1,198.4 L419.4,200.8 L417.6,200.4 L416.1,201.9 L408.6,204.8 L404.2,218.4 L401.0,223.0 L402.4,229.1 L404.0,231.1 L401.7,242.3 L400.6,241.1 L395.8,241.0 L394.0,236.1 L391.9,234.7 L393.1,231.1 L390.2,230.0 L388.0,225.1 L385.9,225.0 L386.5,223.9 Z M417.6,119.9 L417.7,119.9 L417.7,119.8 L417.6,119.9 Z M421.0,121.6 L421.1,121.6 L421.1,121.5 L421.0,121.6 Z M404.5,113.6 L404.4,113.7 L404.5,113.7 L404.5,113.6 Z M402.5,110.8 L402.6,110.9 L402.7,110.8 L402.5,110.8 Z M419.3,120.1 L419.4,119.9 L419.3,119.9 L419.3,120.1 Z M417.8,117.3 L417.9,117.3 L417.9,117.2 L417.8,117.3 Z M403.4,111.8 L403.6,111.5 L403.4,111.7 L403.4,111.8 Z M417.3,120.1 L417.2,120.2 L417.5,120.1 L417.3,120.1 Z M415.4,113.2 L415.5,112.3 L417.2,113.1 L415.2,114.2 L414.6,113.1 L415.4,113.2 Z M416.0,113.1 L416.0,113.2 L416.1,113.2 L416.0,113.1 Z M405.5,112.6 L406.3,109.9 L406.1,113.3 L405.2,113.5 L405.5,112.6 Z M413.5,114.0 L413.5,114.1 L413.5,114.1 L413.5,114.0 Z M413.4,113.9 L413.5,113.9 L413.5,114.0 L413.4,113.9 Z M407.1,112.0 L407.2,112.0 L407.2,112.0 L407.1,112.0 Z M418.4,116.8 L418.4,116.7 L418.4,116.8 L418.4,116.8 Z M404.3,111.0 L404.3,110.9 L404.3,111.0 L404.3,111.0 Z">
    <title>Maranhão</title>
  </path>
  <path id="uf-22" data-sigla="PI" data-name="Piauí" d="M460.8,134.4 L462.8,135.8 L466.6,136.1 L467.5,137.3 L465.2,142.5 L466.9,144.3 L465.9,145.4 L466.3,147.1 L467.8,147.5 L466.9,149.2 L468.1,150.8 L467.6,152.2 L469.5,152.3 L469.9,154.1 L467.7,160.0 L468.7,161.3 L467.6,164.3 L472.2,168.8 L472.4,181.3 L474.9,190.1 L480.0,192.3 L477.5,200.8 L475.2,202.0 L475.7,206.2 L477.5,207.2 L476.9,211.6 L472.2,216.1 L471.1,215.4 L468.1,219.0 L465.8,219.9 L463.5,223.5 L461.0,224.3 L459.4,227.6 L453.7,228.3 L446.4,233.0 L443.8,231.6 L443.5,230.0 L439.2,230.2 L436.3,227.9 L431.1,232.0 L432.0,235.1 L433.9,236.2 L433.1,237.3 L433.8,238.6 L427.2,247.7 L424.3,246.5 L420.9,247.7 L416.0,252.0 L411.5,250.5 L408.9,247.6 L409.4,245.1 L406.9,240.3 L404.8,240.9 L403.8,242.5 L401.6,241.7 L402.7,240.2 L404.0,231.1 L402.4,229.1 L401.0,223.0 L404.2,218.4 L408.0,206.0 L410.2,203.5 L416.1,201.9 L417.6,200.4 L419.4,200.8 L421.1,198.4 L424.7,196.8 L428.3,191.8 L433.0,190.8 L437.2,192.9 L443.1,191.6 L444.2,190.4 L445.5,185.5 L442.0,181.4 L441.7,175.3 L445.5,171.2 L445.9,168.8 L443.8,163.1 L445.2,158.7 L443.2,155.1 L446.9,150.4 L447.6,147.0 L450.1,143.7 L454.2,143.5 L455.2,141.3 L457.1,140.7 L459.6,137.5 L459.2,133.9 L460.8,134.4 Z">
    <title>Piauí</title>
  </path>
  <path id="uf-23" data-sigla="CE" data-name="Ceará" d="M484.9,134.8 L495.7,140.4 L503.9,147.0 L506.6,147.4 L513.1,155.2 L519.0,160.7 L522.7,161.8 L523.8,163.7 L518.3,165.1 L514.6,173.4 L512.1,175.9 L512.6,176.7 L510.9,179.9 L509.0,181.9 L507.0,181.9 L505.1,184.7 L504.8,186.3 L506.0,186.6 L503.8,190.7 L504.6,192.0 L502.5,195.0 L503.9,195.8 L503.6,197.9 L505.8,199.4 L504.1,203.3 L499.7,207.4 L497.9,207.6 L497.3,205.6 L494.9,204.8 L494.8,203.0 L489.9,199.6 L481.7,201.4 L477.5,200.8 L480.0,192.3 L474.9,190.1 L472.4,181.3 L472.2,168.8 L467.6,164.3 L468.7,161.3 L467.7,160.0 L469.9,154.1 L469.5,152.3 L467.6,152.2 L468.1,150.8 L466.9,149.2 L467.8,147.5 L466.3,147.1 L465.9,145.4 L466.9,144.3 L465.2,142.5 L467.5,138.5 L466.6,136.1 L478.2,134.1 L484.9,134.8 Z M484.8,134.8 L484.9,134.8 L484.8,134.8 L484.8,134.8 Z">
    <title>Ceará</title>
  </path>
  <path id="uf-24" data-sigla="RN" data-name="Rio Grande do Norte" d="M525.2,165.2 L527.8,165.0 L531.7,167.5 L541.7,166.8 L548.5,168.5 L551.7,173.1 L555.8,187.7 L553.0,188.7 L546.1,187.1 L541.7,187.7 L540.2,186.5 L537.8,187.0 L537.4,185.1 L535.8,184.9 L533.9,187.1 L535.2,189.7 L534.0,189.3 L534.2,192.4 L531.3,194.9 L531.1,192.8 L529.6,191.2 L527.9,192.1 L527.3,190.9 L524.0,192.6 L523.3,190.7 L520.5,190.9 L520.5,188.6 L521.7,188.1 L522.2,185.3 L525.0,183.1 L524.9,181.3 L516.8,183.5 L516.7,184.9 L511.6,188.2 L506.4,186.4 L506.8,185.4 L505.2,185.7 L507.0,181.9 L509.4,181.7 L511.5,179.0 L512.1,175.9 L514.6,173.4 L518.3,165.1 L523.8,163.7 L525.2,165.2 Z">
    <title>Rio Grande do Norte</title>
  </path>
  <path id="uf-25" data-sigla="PB" data-name="Paraíba" d="M524.1,181.2 L525.1,182.9 L522.0,185.6 L520.5,190.9 L523.3,190.7 L524.0,192.6 L527.3,190.9 L527.9,192.1 L529.6,191.2 L531.1,192.8 L531.3,194.9 L534.2,192.4 L534.0,189.3 L535.2,189.7 L533.9,187.1 L535.8,184.9 L537.4,185.1 L537.8,187.0 L540.2,186.5 L541.7,187.7 L546.1,187.1 L553.0,188.7 L555.8,187.7 L558.3,197.4 L557.8,203.1 L555.9,202.9 L554.3,200.9 L548.6,201.6 L547.9,204.6 L541.4,206.9 L538.3,206.2 L537.6,207.2 L535.4,206.9 L535.1,208.4 L532.8,208.9 L532.5,211.2 L527.4,214.0 L525.0,212.0 L524.6,209.0 L522.3,209.2 L525.2,206.4 L524.9,203.6 L527.5,202.1 L524.0,199.1 L520.3,200.5 L516.9,204.7 L515.2,204.6 L512.2,207.2 L511.0,206.4 L509.2,207.2 L508.2,204.9 L504.9,206.1 L503.2,204.0 L505.8,199.4 L503.6,197.9 L503.9,195.8 L502.5,195.0 L504.6,192.0 L503.8,190.7 L506.0,186.6 L504.8,186.3 L506.8,185.4 L506.4,186.4 L511.6,188.2 L516.7,184.9 L516.8,183.5 L524.1,181.2 Z">
    <title>Paraíba</title>
  </path>
  <path id="uf-26" data-sigla="PE" data-name="Pernambuco" d="M524.8,199.6 L527.5,202.1 L524.9,203.6 L525.2,206.4 L522.3,209.2 L524.6,209.0 L525.0,212.0 L527.4,214.0 L532.5,211.2 L532.8,208.9 L535.1,208.4 L535.4,206.9 L537.6,207.2 L538.3,206.2 L541.4,206.9 L547.9,204.6 L548.6,201.6 L554.3,200.9 L555.9,202.9 L557.6,203.0 L557.7,209.7 L553.2,222.8 L548.8,221.4 L544.9,222.9 L542.8,222.0 L539.6,223.5 L539.8,224.4 L537.6,225.6 L538.2,226.6 L532.9,229.0 L529.1,228.0 L528.0,229.6 L525.8,227.6 L524.0,227.6 L520.4,223.6 L517.5,224.0 L516.6,222.0 L513.6,226.2 L509.9,228.9 L509.1,224.4 L506.5,224.1 L506.5,221.9 L505.2,221.7 L504.3,223.9 L502.0,221.1 L496.1,219.9 L495.3,217.8 L493.8,217.3 L489.5,219.2 L489.5,221.2 L486.7,221.7 L485.8,224.8 L483.4,225.7 L481.7,225.0 L480.5,229.2 L476.4,231.1 L474.3,230.7 L475.8,226.4 L473.7,225.3 L472.2,221.7 L470.8,221.8 L469.5,219.8 L466.1,219.9 L476.9,211.6 L477.5,207.2 L475.7,206.2 L475.2,202.0 L477.5,200.8 L481.7,201.4 L489.9,199.6 L494.8,203.0 L494.9,204.8 L497.3,205.6 L497.9,207.6 L499.7,207.4 L503.2,204.1 L504.9,206.1 L508.2,204.9 L509.2,207.2 L511.0,206.4 L512.2,207.2 L515.2,204.6 L516.9,204.7 L520.3,200.5 L523.4,199.1 L524.8,199.6 Z">
    <title>Pernambuco</title>
  </path>
  <path id="uf-27" data-sigla="AL" data-name="Alagoas" d="M548.8,221.6 L552.9,222.5 L552.8,223.8 L535.8,245.8 L534.9,244.5 L533.4,244.6 L532.6,242.3 L528.6,240.6 L527.4,238.2 L516.3,233.3 L510.4,230.2 L509.9,228.9 L513.6,226.2 L516.6,222.0 L517.5,224.0 L520.4,223.6 L524.0,227.6 L525.8,227.6 L528.0,229.6 L529.1,228.0 L532.9,229.0 L538.2,226.6 L537.6,225.6 L540.4,222.9 L548.8,221.6 Z">
    <title>Alagoas</title>
  </path>
  <path id="uf-28" data-sigla="SE" data-name="Sergipe" d="M513.8,231.8 L527.4,238.2 L528.6,240.6 L532.6,242.3 L533.4,244.6 L534.9,244.5 L535.8,245.8 L529.3,249.3 L522.7,259.5 L520.0,261.0 L517.5,261.2 L513.6,258.8 L513.6,255.9 L509.9,251.3 L510.3,248.9 L513.3,249.7 L515.9,248.6 L515.2,244.8 L517.0,243.4 L515.6,238.6 L513.3,237.4 L512.7,232.4 L513.8,231.8 Z">
    <title>Sergipe</title>
  </path>
  <path id="uf-29" data-sigla="BA" data-name="Bahia" d="M495.2,217.8 L495.9,219.8 L502.0,221.1 L503.8,223.7 L505.5,221.5 L506.7,222.1 L506.5,224.1 L509.1,224.4 L510.4,230.2 L513.3,231.3 L513.3,237.4 L515.6,238.6 L517.0,243.4 L515.2,244.8 L515.9,248.6 L513.3,249.7 L510.3,248.9 L510.0,251.8 L513.6,255.9 L513.6,258.8 L515.9,260.5 L520.0,261.0 L522.5,259.5 L512.6,276.7 L508.4,281.3 L506.4,282.2 L504.6,281.0 L499.7,286.1 L500.8,291.3 L499.3,292.8 L500.2,295.6 L498.3,306.7 L501.2,323.5 L499.0,329.1 L496.2,342.4 L497.3,349.9 L491.3,355.8 L489.8,359.5 L482.1,354.2 L482.0,350.6 L476.4,345.8 L478.3,338.3 L481.2,338.5 L481.6,337.2 L480.3,336.9 L481.3,333.8 L482.9,333.9 L487.2,327.1 L481.9,322.6 L477.3,322.6 L473.7,320.4 L471.7,320.4 L469.1,322.2 L466.5,321.8 L466.1,318.2 L459.9,312.5 L455.8,313.7 L454.7,312.2 L450.9,311.9 L443.9,306.8 L440.6,305.9 L435.6,308.3 L430.7,306.0 L432.1,301.4 L426.0,299.9 L421.1,301.4 L413.8,307.4 L412.1,307.3 L408.6,310.3 L407.0,310.2 L404.9,312.6 L401.6,313.0 L399.9,314.8 L399.3,313.8 L401.4,310.5 L400.2,308.6 L400.7,302.6 L402.3,301.6 L397.2,297.9 L398.0,296.7 L397.3,292.0 L398.7,290.6 L397.6,290.2 L397.5,288.3 L400.4,286.1 L396.5,286.4 L396.4,283.5 L399.3,280.8 L396.7,281.3 L397.0,276.0 L398.8,274.5 L397.4,274.7 L396.0,272.4 L395.4,268.1 L398.5,266.1 L395.7,265.6 L396.5,262.2 L399.8,262.3 L394.2,260.5 L392.3,257.3 L397.0,251.7 L398.0,248.0 L403.4,244.9 L405.2,242.4 L404.8,240.8 L406.5,240.1 L409.4,245.1 L408.9,247.6 L411.5,250.5 L416.0,252.0 L420.9,247.7 L424.3,246.5 L427.1,247.8 L433.8,238.6 L433.1,237.3 L433.9,236.2 L432.0,235.1 L431.1,232.0 L436.3,227.9 L439.2,230.2 L443.5,230.0 L443.8,231.6 L446.4,233.0 L453.7,228.3 L459.4,227.6 L461.0,224.3 L463.5,223.5 L465.8,219.9 L469.5,219.8 L470.8,221.8 L472.2,221.7 L473.9,225.5 L475.8,226.4 L474.3,230.7 L476.4,231.1 L480.5,229.2 L481.7,225.0 L483.4,225.7 L485.8,224.8 L486.7,221.7 L489.8,221.0 L489.5,219.2 L493.5,217.4 L495.2,217.8 Z">
    <title>Bahia</title>
  </path>
  <path id="uf-31" data-sigla="MG" data-name="Minas Gerais" d="M426.1,300.1 L432.1,301.4 L430.7,306.0 L435.6,308.3 L440.6,305.9 L443.9,306.8 L450.9,311.9 L454.7,312.2 L455.8,313.7 L459.9,312.5 L466.1,318.2 L466.5,321.8 L469.1,322.2 L471.7,320.4 L474.4,321.3 L475.3,320.7 L477.3,322.6 L481.9,322.6 L487.2,327.1 L482.9,333.9 L481.3,333.8 L480.3,336.9 L481.6,337.2 L481.2,338.5 L478.4,338.2 L477.2,340.9 L477.5,344.1 L476.4,345.8 L482.0,350.6 L482.1,354.2 L477.8,352.9 L475.3,354.8 L472.8,354.0 L474.4,356.7 L472.6,356.0 L470.4,356.9 L468.9,358.9 L468.6,360.8 L470.8,361.1 L470.4,363.6 L471.9,364.4 L472.3,366.3 L467.9,366.0 L467.7,366.8 L470.9,368.5 L470.1,369.3 L472.2,371.7 L471.9,375.6 L468.8,378.7 L468.5,381.8 L466.8,382.7 L465.8,386.2 L460.5,386.4 L459.3,388.2 L459.8,392.7 L457.4,397.0 L455.0,397.5 L456.0,398.4 L454.2,400.5 L453.6,405.0 L451.9,406.9 L453.3,408.3 L442.0,413.7 L439.6,412.5 L432.3,413.3 L425.7,416.2 L422.6,416.1 L413.7,419.4 L409.4,421.8 L408.4,420.9 L405.7,421.8 L404.9,420.8 L405.2,421.8 L403.5,422.8 L404.8,422.9 L405.0,424.2 L403.9,424.8 L402.2,424.2 L399.0,425.7 L398.9,424.8 L396.1,425.5 L396.2,423.4 L394.2,422.5 L395.4,422.0 L395.2,420.2 L391.6,418.4 L390.8,416.8 L392.5,414.3 L390.8,413.5 L392.3,412.5 L391.3,410.0 L393.7,406.8 L393.8,404.7 L391.6,403.1 L386.8,404.0 L384.9,397.6 L383.5,396.2 L385.5,392.7 L382.8,389.9 L383.3,385.8 L380.4,382.9 L378.0,384.1 L377.0,383.1 L374.8,383.3 L374.4,385.2 L373.2,383.9 L371.3,385.5 L369.5,383.8 L369.4,385.5 L361.3,385.8 L360.2,389.8 L359.3,389.1 L358.9,385.8 L355.8,387.8 L354.5,384.9 L355.3,383.0 L351.1,382.1 L346.3,382.6 L338.2,380.2 L330.8,384.7 L330.1,379.5 L331.8,377.3 L331.3,376.0 L333.2,376.0 L332.5,375.1 L333.3,373.1 L337.3,370.4 L337.7,368.0 L340.5,364.6 L344.6,363.1 L347.8,363.7 L351.3,361.6 L353.5,363.8 L355.9,360.4 L357.8,360.5 L359.7,358.9 L361.4,359.9 L369.2,359.3 L373.5,361.7 L382.9,355.3 L381.7,352.0 L383.2,348.8 L382.3,347.6 L380.0,347.6 L379.3,345.6 L385.1,339.7 L383.4,335.1 L380.5,332.8 L382.7,325.7 L389.6,323.8 L389.0,320.0 L387.6,319.0 L389.2,315.7 L387.7,314.3 L388.1,311.7 L393.9,311.8 L393.0,307.9 L394.3,306.7 L396.9,310.0 L400.9,309.6 L401.3,311.6 L399.3,313.8 L400.2,314.8 L401.6,313.0 L404.9,312.6 L412.1,307.3 L413.8,307.4 L421.1,301.4 L426.1,300.1 Z">
    <title>Minas Gerais</title>
  </path>
  <path id="uf-32" data-sigla="ES" data-name="Espírito Santo" d="M475.0,395.6 L471.7,402.3 L469.8,401.1 L461.1,399.7 L461.1,396.0 L458.8,394.4 L459.9,390.3 L459.1,388.8 L460.5,386.4 L465.8,386.2 L466.8,382.7 L468.5,381.8 L468.8,378.7 L470.6,377.2 L470.5,376.0 L471.9,375.8 L472.4,373.4 L471.9,371.0 L470.2,369.7 L470.9,368.5 L467.7,366.8 L467.9,366.0 L472.3,366.3 L471.9,364.4 L470.4,363.6 L470.8,361.1 L468.6,360.8 L468.9,358.9 L470.4,356.9 L472.6,356.0 L474.4,356.7 L472.8,354.0 L475.3,354.8 L477.8,352.9 L482.1,354.2 L489.9,359.3 L488.7,366.6 L489.6,373.4 L487.9,378.3 L485.4,379.6 L483.2,382.7 L479.2,392.6 L476.4,395.6 L476.1,394.8 L475.0,395.6 Z M475.0,395.7 L475.0,395.6 L475.1,395.7 L475.0,395.7 Z">
    <title>Espírito Santo</title>
  </path>
  <path id="uf-33" data-sigla="RJ" data-name="Rio de Janeiro" d="M421.8,431.1 L418.9,432.2 L416.7,430.5 L417.8,426.9 L422.1,424.6 L425.2,424.4 L426.8,422.2 L423.6,420.7 L420.1,421.2 L417.9,418.0 L423.0,416.0 L425.7,416.2 L432.3,413.3 L439.6,412.5 L442.0,413.7 L453.3,408.3 L451.9,406.9 L453.6,405.0 L454.2,400.5 L456.0,398.4 L455.0,397.5 L457.4,397.0 L458.9,394.5 L461.1,396.0 L461.1,399.7 L469.8,401.1 L471.7,402.3 L470.1,405.4 L471.4,412.4 L461.5,416.7 L457.7,420.1 L457.3,422.8 L459.0,423.3 L456.7,425.5 L456.9,426.8 L449.8,425.9 L442.3,426.6 L441.2,426.0 L442.7,423.1 L441.9,422.2 L439.0,424.0 L440.9,425.6 L440.5,426.7 L435.3,428.0 L433.1,427.7 L434.9,427.5 L431.3,425.5 L426.3,427.7 L424.0,427.2 L424.5,425.8 L423.2,426.0 L423.0,427.2 L419.3,428.1 L419.0,430.3 L420.0,429.6 L419.8,431.2 L421.2,430.2 L421.8,431.1 Z M425.7,428.2 L427.7,429.4 L424.1,430.1 L423.7,429.4 L425.7,428.2 Z M419.9,430.2 L420.0,430.2 L419.9,430.2 L419.9,430.2 Z M427.2,427.4 L427.3,427.4 L427.2,427.5 L427.2,427.4 Z M435.8,427.8 L435.9,427.8 L435.9,427.8 L435.8,427.8 Z M441.0,427.7 L441.1,427.8 L441.0,427.8 L441.0,427.7 Z M420.0,430.2 L420.1,430.1 L420.1,430.1 L420.0,430.2 Z M429.8,427.2 L429.8,427.2 L429.8,427.2 L429.8,427.2 Z M419.3,430.0 L419.3,430.0 L419.3,430.0 L419.3,430.0 Z M429.7,426.9 L429.7,427.0 L429.7,427.0 L429.7,426.9 Z M440.1,427.5 L440.2,427.4 L440.2,427.4 L440.1,427.5 Z M419.6,428.3 L419.6,428.3 L419.6,428.3 L419.6,428.3 Z M429.7,427.2 L429.7,427.2 L429.7,427.2 L429.7,427.2 Z M431.0,426.1 L431.0,426.1 L430.9,426.1 L431.0,426.1 Z M419.5,428.5 L419.6,428.5 L419.6,428.5 L419.5,428.5 Z">
    <title>Rio de Janeiro</title>
  </path>
  <path id="uf-35" data-sigla="SP" data-name="São Paulo" d="M399.0,439.3 L398.4,441.2 L396.9,442.0 L395.6,440.9 L387.7,445.4 L386.8,447.3 L375.1,455.5 L374.1,458.1 L371.5,460.3 L372.5,459.2 L370.2,458.7 L369.3,455.5 L368.2,456.9 L367.1,455.5 L365.5,457.3 L364.7,456.6 L365.9,452.1 L364.7,451.1 L354.6,451.1 L356.0,446.3 L350.3,439.2 L351.1,437.1 L350.0,434.3 L350.9,433.1 L349.3,429.3 L346.0,427.6 L345.0,425.4 L342.2,426.2 L335.5,425.4 L334.4,426.3 L332.3,423.9 L327.1,422.1 L320.7,422.1 L315.2,419.9 L313.6,422.2 L308.5,420.6 L306.9,421.5 L303.1,420.6 L301.4,421.9 L301.2,421.0 L311.0,414.4 L315.6,408.3 L315.6,405.4 L317.2,405.2 L318.6,403.0 L318.5,399.9 L322.1,396.9 L322.5,392.6 L325.9,388.6 L329.8,387.0 L331.2,383.9 L336.7,380.8 L338.2,380.2 L346.3,382.6 L355.1,382.9 L354.5,384.9 L355.5,387.6 L358.9,385.8 L359.3,389.1 L360.2,389.8 L361.3,385.8 L369.4,385.5 L369.5,383.8 L371.3,385.5 L373.2,383.9 L374.4,385.2 L374.8,383.3 L377.0,383.1 L378.0,384.1 L380.3,382.9 L383.7,386.6 L382.8,389.9 L384.7,390.9 L385.6,393.0 L383.5,396.2 L384.9,397.6 L386.8,404.0 L391.6,403.1 L393.8,404.7 L393.7,406.8 L391.3,410.0 L392.3,412.5 L390.8,413.5 L392.5,414.3 L390.8,416.8 L391.6,418.4 L395.2,420.2 L395.4,422.0 L394.2,422.5 L396.2,423.4 L395.9,425.4 L403.9,424.8 L405.0,424.2 L404.8,422.9 L403.5,422.8 L405.2,421.8 L404.9,420.8 L405.7,421.8 L408.4,420.9 L409.4,421.8 L417.7,418.3 L420.1,421.2 L423.6,420.7 L426.8,422.2 L425.2,424.4 L417.9,426.6 L416.5,430.1 L418.9,432.2 L416.3,431.7 L414.1,433.0 L413.8,434.4 L412.6,434.0 L412.0,435.3 L409.3,435.9 L409.3,438.7 L403.1,437.8 L399.0,439.3 Z M410.5,440.1 L408.5,439.7 L410.4,437.3 L411.8,438.1 L410.9,439.4 L411.8,439.9 L411.5,440.9 L410.5,440.1 Z M374.1,458.3 L374.1,458.2 L374.2,458.3 L374.1,458.3 Z M411.8,438.7 L411.8,438.7 L411.8,438.7 L411.8,438.7 Z M405.0,438.3 L405.0,438.3 L405.0,438.3 L405.0,438.3 Z M410.8,440.2 L410.8,440.2 L410.9,440.2 L410.8,440.2 Z M412.8,438.9 L412.8,438.9 L412.8,438.9 L412.8,438.9 Z M405.6,438.5 L405.6,438.5 L405.6,438.5 L405.6,438.5 Z">
    <title>São Paulo</title>
  </path>
  <path id="uf-41" data-sigla="PR" data-name="Paraná" d="M315.8,420.1 L322.9,422.5 L327.1,422.1 L332.3,423.9 L334.4,426.3 L335.5,425.4 L342.2,426.2 L345.0,425.4 L346.0,427.6 L348.6,428.4 L350.9,433.1 L350.0,434.3 L351.1,437.1 L350.3,439.2 L356.0,446.3 L354.6,451.1 L364.7,451.1 L365.9,452.1 L364.5,455.9 L365.1,457.1 L367.1,455.5 L368.2,456.9 L369.3,455.5 L370.2,458.7 L372.5,459.2 L366.7,465.3 L364.6,470.0 L356.4,470.3 L351.0,473.8 L345.6,470.4 L342.2,471.5 L341.3,470.8 L340.3,472.3 L336.8,470.4 L334.7,473.9 L332.2,474.5 L329.6,473.6 L327.3,475.0 L326.6,476.4 L327.5,479.2 L325.0,480.7 L323.6,478.8 L318.5,479.0 L314.1,476.8 L306.4,475.3 L301.4,476.0 L298.7,473.9 L294.9,474.6 L291.0,469.9 L290.2,464.9 L287.5,463.9 L287.3,464.8 L287.2,463.0 L286.1,464.3 L283.3,464.5 L282.6,465.9 L280.3,464.4 L280.0,462.4 L282.6,458.1 L282.4,455.1 L285.0,446.6 L283.9,443.2 L287.2,440.6 L288.9,433.5 L292.4,431.5 L294.2,426.2 L303.1,420.6 L306.9,421.5 L308.5,420.6 L313.6,422.2 L315.0,419.9 L315.8,420.1 Z">
    <title>Paraná</title>
  </path>
  <path id="uf-42" data-sigla="SC" data-name="Santa Catarina" d="M292.6,478.4 L293.7,474.0 L295.7,474.7 L298.7,473.9 L301.4,476.0 L306.4,475.3 L314.1,476.8 L318.5,479.0 L323.6,478.8 L325.0,480.7 L327.5,479.2 L326.6,476.4 L327.3,475.0 L329.6,473.6 L332.2,474.5 L334.7,473.9 L336.8,470.4 L340.3,472.3 L341.3,470.8 L342.2,471.5 L345.6,470.4 L351.0,473.8 L356.4,470.3 L363.8,469.7 L366.0,473.5 L363.3,480.8 L364.7,481.7 L363.8,483.4 L364.9,484.9 L364.4,486.6 L366.3,486.9 L364.2,488.4 L365.5,489.6 L363.8,491.8 L364.9,493.4 L363.8,494.1 L364.8,497.7 L362.4,506.6 L354.8,512.1 L348.8,518.5 L345.3,516.7 L343.2,517.5 L343.9,518.7 L342.7,516.7 L343.5,517.2 L343.4,516.1 L345.3,515.5 L345.7,509.8 L349.1,508.3 L348.1,506.0 L343.4,506.3 L343.0,505.5 L342.6,506.5 L336.0,505.0 L329.6,496.9 L321.9,491.9 L318.3,492.3 L316.6,490.6 L317.4,490.3 L314.4,488.8 L311.5,489.2 L310.5,488.0 L306.9,488.9 L303.4,487.2 L303.0,488.0 L302.3,486.0 L301.7,487.1 L298.3,488.0 L298.5,486.7 L297.5,486.1 L295.6,486.8 L295.8,487.7 L291.0,487.3 L293.3,484.0 L292.1,480.7 L292.6,478.4 Z M367.1,490.4 L367.8,491.3 L366.2,496.0 L364.9,496.9 L365.2,491.4 L367.1,490.4 Z M364.9,491.7 L365.0,491.7 L365.0,491.8 L364.9,491.7 Z">
    <title>Santa Catarina</title>
  </path>
  <path id="uf-43" data-sigla="RS" data-name="Rio Grande do Sul" d="M316.1,551.1 L315.2,550.8 L315.8,552.5 L313.9,553.3 L313.1,555.0 L315.8,557.7 L315.3,559.6 L312.4,562.5 L307.9,573.4 L296.8,582.6 L295.2,580.6 L295.5,579.5 L296.4,580.0 L296.6,574.0 L298.2,572.5 L299.1,573.2 L300.9,568.7 L301.7,569.3 L302.9,567.9 L304.2,570.2 L306.2,569.7 L308.5,564.8 L307.0,561.8 L308.0,559.3 L305.6,561.2 L305.2,562.2 L306.6,562.8 L303.3,564.3 L301.6,566.7 L297.2,565.7 L293.6,562.8 L292.2,558.4 L289.0,556.0 L287.2,556.2 L280.4,549.4 L276.9,549.1 L274.5,546.6 L273.6,547.6 L271.3,546.5 L269.7,543.3 L266.5,540.3 L262.4,543.8 L260.4,543.9 L260.2,539.6 L249.2,529.8 L245.6,529.5 L243.4,532.5 L239.2,532.4 L237.5,531.0 L241.7,528.3 L242.6,525.6 L247.0,523.0 L252.3,515.5 L254.8,514.8 L256.6,510.7 L260.5,508.0 L260.4,506.6 L262.2,506.2 L262.4,504.5 L264.8,505.5 L265.2,504.1 L263.7,502.8 L268.4,500.7 L271.8,497.2 L274.2,497.2 L273.5,496.1 L275.5,496.0 L277.2,492.5 L279.1,493.1 L280.4,491.4 L281.2,492.1 L282.9,490.7 L284.7,491.3 L286.2,488.5 L287.5,489.1 L290.4,486.7 L293.7,488.0 L297.5,486.1 L298.5,486.7 L298.3,488.0 L301.7,487.1 L302.3,486.0 L303.0,488.0 L303.4,487.2 L306.9,488.9 L310.5,488.0 L311.5,489.2 L314.4,488.8 L317.4,490.3 L316.6,490.6 L318.3,492.3 L321.9,491.9 L329.6,496.9 L336.0,505.0 L342.6,506.5 L343.0,505.5 L343.4,506.3 L348.1,506.0 L349.1,508.3 L345.7,509.8 L345.9,513.5 L344.7,514.8 L345.4,515.0 L342.5,517.4 L344.3,518.9 L343.2,517.5 L345.5,516.7 L348.8,518.5 L344.5,525.0 L340.1,535.5 L334.0,544.3 L327.2,551.0 L315.6,559.5 L316.5,556.3 L315.3,554.8 L318.8,555.3 L319.7,554.4 L318.6,554.3 L321.4,553.9 L323.9,551.0 L324.6,551.8 L324.7,549.7 L325.7,550.4 L327.4,549.4 L328.4,543.7 L331.0,543.3 L331.2,541.2 L334.9,539.1 L334.6,533.6 L336.0,533.9 L336.0,533.0 L335.6,534.7 L336.7,535.2 L337.2,532.2 L336.4,531.1 L335.3,532.5 L331.9,533.1 L331.7,534.6 L330.0,533.9 L330.3,532.2 L327.3,531.0 L327.5,528.9 L326.6,528.3 L326.6,532.7 L329.4,533.8 L328.8,535.1 L328.2,534.2 L327.1,535.0 L326.6,539.1 L326.3,537.6 L325.3,537.7 L325.6,540.9 L323.8,541.5 L324.6,544.0 L322.1,544.8 L322.1,546.6 L317.9,547.2 L316.3,552.8 L316.1,551.1 Z M328.4,532.1 L328.5,532.1 L328.5,532.1 L328.4,532.1 Z M329.3,532.0 L329.3,531.9 L329.3,532.0 L329.3,532.0 Z M316.1,551.0 L316.1,551.1 L316.1,551.0 L316.1,551.0 Z M328.1,531.7 L328.1,531.6 L328.1,531.7 L328.1,531.7 Z">
    <title>Rio Grande do Sul</title>
  </path>
  <path id="uf-50" data-sigla="MS" data-name="Mato Grosso do Sul" d="M290.4,353.3 L293.0,354.6 L301.7,355.0 L300.7,355.6 L301.7,359.4 L306.1,359.5 L303.2,362.3 L303.9,363.7 L309.3,364.0 L316.5,368.7 L329.9,373.7 L331.8,377.0 L330.1,379.5 L330.7,384.8 L329.8,387.0 L325.9,388.6 L322.5,392.6 L322.1,396.9 L318.5,399.9 L318.6,403.0 L317.2,405.2 L315.6,405.4 L315.6,408.3 L311.0,414.4 L294.2,426.2 L292.4,431.5 L288.9,433.5 L286.8,441.1 L284.6,442.4 L282.5,440.0 L279.2,438.6 L275.4,440.8 L269.7,441.3 L268.5,440.5 L268.5,437.3 L267.1,435.9 L267.3,429.7 L266.2,429.1 L265.3,424.7 L266.0,421.9 L262.7,416.5 L257.6,416.4 L255.1,413.5 L253.5,413.8 L251.6,416.2 L250.7,415.6 L248.8,416.8 L246.6,415.6 L241.3,415.7 L238.4,414.9 L237.9,413.8 L235.3,414.6 L232.6,413.7 L234.1,407.9 L233.0,405.5 L234.5,402.8 L233.6,402.0 L234.6,401.1 L235.0,397.1 L233.5,396.4 L234.5,395.4 L233.0,394.9 L234.4,394.2 L233.6,393.0 L232.7,393.6 L232.5,389.7 L230.1,385.9 L234.5,383.0 L230.6,379.9 L235.5,369.4 L236.8,369.1 L235.8,367.5 L238.7,357.9 L240.2,357.8 L238.5,356.4 L235.4,348.1 L236.5,347.8 L236.9,350.3 L240.2,353.0 L245.9,350.5 L250.3,344.5 L254.3,344.8 L259.0,342.4 L265.6,344.9 L267.2,346.9 L272.8,349.4 L276.6,349.0 L280.5,346.7 L284.4,349.5 L287.6,348.9 L288.1,347.0 L292.7,343.3 L292.8,349.6 L290.2,350.8 L289.3,352.8 L290.4,353.3 Z M290.4,353.2 L290.4,353.3 L290.4,353.3 L290.4,353.2 Z">
    <title>Mato Grosso do Sul</title>
  </path>
  <path id="uf-51" data-sigla="MT" data-name="Mato Grosso" d="M199.3,286.4 L200.4,283.2 L203.2,280.6 L203.4,276.5 L207.6,272.5 L205.9,271.1 L204.6,266.3 L202.9,265.2 L202.8,261.6 L205.5,258.8 L204.7,254.8 L200.2,253.9 L199.5,254.6 L198.0,252.9 L182.6,252.9 L183.9,244.7 L181.9,240.8 L183.2,236.6 L182.3,234.5 L183.7,233.2 L181.5,228.0 L183.0,227.6 L182.6,225.4 L183.8,222.9 L182.2,221.2 L226.7,221.1 L227.9,220.0 L226.3,219.8 L228.5,211.5 L227.1,207.3 L229.7,204.1 L230.5,200.2 L232.9,202.9 L234.9,209.2 L237.5,212.7 L236.9,215.6 L238.2,220.6 L243.8,223.1 L246.0,225.5 L245.7,226.8 L249.1,227.7 L249.9,230.0 L341.6,236.3 L336.3,248.2 L336.2,254.0 L334.4,259.4 L335.6,261.8 L334.7,263.8 L335.8,265.9 L335.2,270.5 L336.1,273.8 L334.9,276.4 L336.1,279.4 L337.7,280.4 L336.2,282.9 L336.3,286.5 L332.6,292.6 L333.1,297.8 L331.9,298.2 L331.1,300.7 L331.3,304.1 L329.6,309.8 L327.4,311.5 L326.0,310.6 L323.2,312.0 L321.6,313.6 L320.9,318.0 L318.4,323.0 L313.2,323.9 L312.1,326.5 L307.2,329.9 L307.8,333.5 L306.3,334.0 L305.7,336.2 L302.5,337.9 L299.6,344.3 L299.2,350.0 L301.7,355.0 L293.0,354.6 L289.4,353.3 L290.7,350.1 L292.8,349.6 L292.7,343.3 L288.1,347.0 L287.5,348.9 L283.9,349.6 L280.5,346.7 L276.6,349.0 L272.8,349.4 L267.2,346.9 L265.6,344.9 L259.0,342.4 L254.3,344.8 L250.3,344.5 L245.9,350.5 L240.2,353.0 L236.9,350.3 L236.3,347.6 L234.1,346.5 L231.9,347.1 L226.9,342.6 L225.9,335.7 L227.8,332.6 L228.0,329.3 L226.4,330.1 L202.0,329.3 L201.1,317.9 L196.5,312.6 L201.0,312.4 L200.6,305.5 L197.5,299.2 L199.1,296.3 L197.9,293.6 L194.3,291.9 L199.0,288.6 L199.3,286.4 Z M199.3,286.3 L199.3,286.4 L199.3,286.4 L199.3,286.3 Z">
    <title>Mato Grosso</title>
  </path>
  <path id="uf-52" data-sigla="GO" data-name="Goiás" d="M342.6,273.5 L340.6,277.4 L340.7,279.7 L353.6,286.0 L354.1,283.0 L357.2,279.0 L359.2,281.4 L361.0,279.3 L364.4,282.9 L364.6,286.6 L365.7,283.9 L366.7,286.3 L370.4,284.2 L370.6,286.5 L372.0,285.4 L375.3,286.5 L377.4,288.8 L378.0,283.5 L380.9,286.2 L390.4,281.6 L394.6,281.6 L395.1,279.5 L395.8,281.9 L399.3,280.8 L396.4,283.5 L397.0,287.1 L400.4,286.1 L397.5,288.3 L397.6,290.2 L398.7,290.6 L397.3,292.0 L398.0,296.7 L397.2,297.9 L402.3,301.6 L400.7,302.6 L400.8,308.0 L399.7,310.1 L396.9,310.0 L396.4,308.3 L393.9,306.7 L393.0,307.9 L393.9,311.8 L388.0,311.8 L387.7,314.3 L389.2,315.7 L387.6,319.0 L389.0,320.0 L389.6,323.8 L384.9,324.4 L382.4,326.0 L381.6,323.8 L382.5,319.6 L381.1,318.2 L370.1,318.3 L369.0,326.2 L382.6,326.4 L380.5,332.8 L383.4,335.1 L385.1,339.7 L382.0,342.4 L380.7,345.0 L379.7,344.8 L379.3,346.5 L383.2,348.8 L381.7,352.0 L382.9,355.3 L373.5,361.7 L369.2,359.3 L361.4,359.9 L359.7,358.9 L357.8,360.5 L355.9,360.4 L353.5,363.8 L351.3,361.6 L347.8,363.7 L344.6,363.1 L340.5,364.6 L337.7,368.0 L337.3,370.4 L333.3,373.1 L333.0,376.2 L329.5,373.4 L312.0,366.4 L310.4,364.5 L303.9,363.7 L303.2,362.3 L306.1,359.5 L301.3,358.9 L300.7,355.6 L301.7,354.3 L299.3,350.3 L299.2,347.7 L299.6,344.3 L302.5,337.9 L305.7,336.2 L306.3,334.0 L307.9,333.2 L307.2,329.9 L312.1,326.5 L313.2,323.9 L318.4,323.0 L320.9,318.0 L321.6,313.6 L323.2,312.0 L326.0,310.6 L327.4,311.5 L329.6,309.8 L331.3,304.1 L331.1,300.7 L331.9,298.2 L333.1,297.8 L332.6,292.6 L336.3,286.5 L336.2,282.9 L338.1,277.8 L342.6,273.5 Z">
    <title>Goiás</title>
  </path>
  <path id="uf-53" data-sigla="DF" data-name="Distrito Federal" d="M382.6,326.0 L369.0,326.2 L370.1,318.3 L381.1,318.2 L382.5,319.6 L381.6,325.2 L382.6,326.0 Z">
    <title>Distrito Federal</title>
  </path>
</svg>
